<svg width="82" height="82" viewBox="0 0 82 82" fill="none" xmlns="http://www.w3.org/2000/svg">
<circle cx="41" cy="41" r="39.5" stroke="#F04B27" stroke-width="3"/>
<path d="M81 41.4602C80.8285 52.5611 76.6678 62.4087 68.2345 70.2867C60.0771 77.9037 50.2793 81.4473 39.1468 80.955C28.2902 80.4775 19.0516 76.1729 11.6697 68.2053C4.06405 60.0139 0.522224 50.1962 1.05163 39.043C1.55867 28.2256 5.86106 19.0196 13.7948 11.6563C21.9596 4.07661 31.75 0.540435 42.8676 1.04773C53.6869 1.54011 62.9031 5.82978 70.285 13.7675C77.3985 21.4143 80.8882 30.5681 81 41.4602ZM14.9953 44.9516C15.204 45.1679 25.4343 55.3587 30.3854 60.3123C32.8461 62.7742 38.5354 68.6156 39.0051 68.9812C39.9521 69.7123 41.1749 69.9734 42.3158 69.1677C42.5693 68.9886 42.8005 68.8245 43.0614 68.5932C45.2909 66.5715 61.8518 49.7336 65.8634 45.9662C66.5717 45.332 67.2503 44.6308 67.7946 43.8549C68.5626 42.7433 68.6446 41.393 67.6753 40.3187C67.4218 40.0427 67.1682 39.7741 66.9073 39.5056C64.5436 37.1257 62.1724 34.7459 59.8161 32.3586C58.7797 31.3142 57.609 30.5905 56.073 30.6427C54.9098 30.68 53.9479 31.2023 53.068 31.911C49.9139 34.4549 46.7673 37.0064 43.6132 39.5503C43.5014 39.6398 43.3895 39.7144 43.2777 39.7965C43.3 39.6771 43.3522 39.5951 43.4119 39.5205C45.2164 37.26 47.0208 34.9921 48.8327 32.7316C49.7275 31.62 50.6745 30.5457 51.5469 29.4118C52.2926 28.4419 52.5461 27.308 52.3149 26.0994C52.0987 24.9505 51.4351 24.0478 50.6521 23.2421C48.184 20.7056 45.701 18.1766 43.2031 15.6625C41.8833 14.3271 40.2653 14.2599 38.8336 15.4685C38.1998 16.0056 15.4948 38.9162 15.2488 39.1848C15.465 39.1848 24.2115 39.1773 28.4617 39.1922C28.7823 39.1922 28.9911 39.0878 29.2073 38.8714C31.3249 36.6856 41.1526 26.9573 41.5105 26.6291C41.3017 26.9946 35.3365 37.0064 34.054 39.1325C33.6737 39.7592 33.3307 40.4083 33.2263 41.1543C33.0399 42.4524 33.5843 43.4446 34.4641 44.3174C35.8436 45.6976 37.2156 47.0852 38.595 48.4654C39.3183 49.189 40.1236 49.7784 41.2048 49.8306C42.1443 49.8754 42.957 49.5173 43.7325 49.0547C45.0374 48.3012 55.8791 41.8779 56.3638 41.587C50.421 47.7119 41.943 56.1644 40.996 57.1193C40.9363 57.0671 31.5859 47.7939 29.0656 45.2351C28.8643 45.0336 28.6704 44.9516 28.3871 44.9516C24.0698 44.9516 15.204 44.9516 14.9953 44.9516Z" fill="#F04B27"/>
</svg>
