<svg width="82" height="82" viewBox="0 0 82 82" fill="none" xmlns="http://www.w3.org/2000/svg">
<path fill-rule="evenodd" clip-rule="evenodd" d="M41 0C63.6437 0 82 18.3563 82 41C82 63.6437 63.6437 82 41 82C18.3563 82 0 63.6437 0 41C0 18.3563 18.3563 0 41 0ZM43.2031 15.6621C41.8834 14.3269 40.2655 14.2603 38.834 15.4688C38.2004 16.0057 15.5077 38.9033 15.249 39.1846C15.4717 39.1846 24.2134 39.1775 28.4619 39.1924C28.7824 39.1923 28.9909 39.0874 29.207 38.8711C31.3248 36.6851 41.1528 26.9572 41.5107 26.6289C41.302 26.9945 35.3362 37.0066 34.0537 39.1328C33.6735 39.7594 33.3309 40.4084 33.2266 41.1543C33.0402 42.4523 33.5841 43.4446 34.4639 44.3174C35.8433 45.6975 37.2153 47.0857 38.5947 48.4658C39.318 49.1894 40.1239 49.7788 41.2051 49.8311C42.1444 49.8757 42.9571 49.5172 43.7324 49.0547C45.0373 48.3012 55.8796 41.8779 56.3643 41.5869C50.4217 47.7115 41.9437 56.1636 40.9961 57.1191C40.9336 57.0641 31.5854 47.7939 29.0654 45.2354C28.8641 45.0339 28.6701 44.9512 28.3867 44.9512H14.9951C15.2039 45.1675 25.4346 55.3589 30.3857 60.3125C32.8465 62.7745 38.535 68.6158 39.0049 68.9814C39.9518 69.7125 41.1747 69.9734 42.3154 69.168C42.5689 68.9889 42.8005 68.824 43.0615 68.5928C45.2921 66.5699 61.8519 49.7331 65.8633 45.9658C66.5716 45.3317 67.2506 44.6303 67.7949 43.8545C68.5627 42.743 68.644 41.3925 67.6748 40.3184C67.4215 40.0425 67.168 39.7742 66.9072 39.5059C64.5435 37.126 62.1726 34.7457 59.8164 32.3584C58.78 31.314 57.6092 30.5904 56.0732 30.6426C54.9101 30.6799 53.9482 31.2025 53.0684 31.9111C49.9143 34.4551 46.7674 37.0068 43.6133 39.5508C43.5015 39.6402 43.3891 39.7149 43.2773 39.7969C43.2997 39.6775 43.3525 39.5951 43.4121 39.5205C45.2166 37.2601 47.0211 34.9919 48.833 32.7314C49.7277 31.62 50.6746 30.5459 51.5469 29.4121C52.2925 28.4423 52.5456 27.3081 52.3145 26.0996C52.0982 24.9508 51.4352 24.0479 50.6523 23.2422C48.1842 20.7057 45.701 18.1762 43.2031 15.6621Z" fill="black"/>
</svg>
